# xmcd
#
# Track frame offsets:
#	150
#	15393
#	33926
#	51598
#	67183
#	82012
#	99406
#	114185
#	130305
#	144962
#	158070
#	179837
#	193769
#	212061
#
# Disc length: 3046
#
# Revision: 1
# Processed by: cddbd v1.5.1PL0 Copyright (c) Steve Scherf et al.
# Submitted via: CDex 1.50beta9
# Normalized: r0:TDELIM( - )
#
DISCID=c60be40e
DTITLE=Various Artist - Hitz - Country - Vol 1 2003
DYEAR=2003
DGENRE=Country
TTITLE0=Vince Gill - Next Big Thing
TTITLE1=Faith Hill - When The Lights Go Down
TTITLE2=Blake Shelton - The Baby
TTITLE3=Deana Carter - There's No Limit
TTITLE4=Darryl Worley - Family Tree
TTITLE5=Lee Ann Womack - Forever Everyday
TTITLE6=Joe Nichols - Brokenheartsville
TTITLE7=Pinmonkey - I Drove All Night
TTITLE8=Trace Adkins - Chrome
TTITLE9=Brad Martin - Rub Me The Right Way
TTITLE10=Craig Morgan - Almost Home
TTITLE11=Kevin Denney - It'll Go Away
TTITLE12=Tommy Shane Steiner - What We're Gonna Do About It
TTITLE13=Mark Chesnutt - I Want My Baby Back
EXTD=YEAR: 2003
EXTT0=
EXTT1=
EXTT2=
EXTT3=
EXTT4=
EXTT5=
EXTT6=
EXTT7=
EXTT8=
EXTT9=
EXTT10=
EXTT11=
EXTT12=
EXTT13=
PLAYORDER=
